<svg width="32" height="32" viewBox="0 0 32 32" xmlns="http://www.w3.org/2000/svg">
  <!-- Terminal window -->
  <rect x="2" y="4" width="28" height="24" rx="3" fill="#1F2937" stroke="#374151" stroke-width="1"/>
  
  <!-- Terminal header -->
  <rect x="2" y="4" width="28" height="6" rx="3" fill="#374151"/>
  
  <!-- Terminal dots -->
  <circle cx="6" cy="7" r="1" fill="#EF4444"/>
  <circle cx="10" cy="7" r="1" fill="#F59E0B"/>
  <circle cx="14" cy="7" r="1" fill="#10B981"/>
  
  <!-- Cloud symbol in terminal -->
  <path d="M20 18c0.8 0 1.5-0.7 1.5-1.5s-0.7-1.5-1.5-1.5c-0.1-1.4-1.2-2.5-2.5-2.5-1 0-1.9 0.6-2.3 1.5C15 14 14.7 14 14.5 14c-1.1 0-2 0.9-2 2 0 0.4 0.1 0.7 0.3 1C12.3 17.2 12 17.8 12 18.5c0 1.1 0.9 2 2 2h6z" fill="#60A5FA"/>
  
  <!-- Command prompt -->
  <text x="6" y="20" font-family="monospace" font-size="8" fill="#10B981">$</text>
  <text x="10" y="20" font-family="monospace" font-size="6" fill="#E5E7EB">cf25</text>
  
  <!-- Cursor -->
  <rect x="22" y="16" width="1" height="6" fill="#10B981" opacity="0.8"/>
</svg>

