<svg width="32" height="32" viewBox="0 0 32 32" xmlns="http://www.w3.org/2000/svg">
  <!-- Cloud background -->
  <path d="M24 18c1.5 0 3-1.5 3-3s-1.5-3-3-3c-0.2-2.8-2.5-5-5.5-5-2.2 0-4.1 1.3-5 3.2C12.7 10.1 12 10 11.5 10c-2.5 0-4.5 2-4.5 4.5 0 0.8 0.2 1.5 0.6 2.1C6.7 17.2 6 18.5 6 20c0 2.2 1.8 4 4 4h14z" fill="#3B82F6" opacity="0.8"/>
  
  <!-- Code brackets -->
  <text x="16" y="22" font-family="monospace" font-size="14" font-weight="bold" text-anchor="middle" fill="white">{}</text>
  
  <!-- Small 25 indicator -->
  <text x="26" y="10" font-family="sans-serif" font-size="8" font-weight="bold" fill="#1E40AF">25</text>
</svg>

