<svg width="32" height="32" viewBox="0 0 32 32" xmlns="http://www.w3.org/2000/svg">
  <!-- Background circle -->
  <circle cx="16" cy="16" r="15" fill="#1E40AF" stroke="#3B82F6" stroke-width="2"/>
  
  <!-- CF letters -->
  <text x="8" y="20" font-family="sans-serif" font-size="16" font-weight="bold" fill="white">CF</text>
  
  <!-- 25 numbers -->
  <text x="20" y="24" font-family="sans-serif" font-size="10" font-weight="bold" fill="#93C5FD">25</text>
  
  <!-- Small cloud accent -->
  <path d="M22 8c0.8 0 1.5-0.7 1.5-1.5s-0.7-1.5-1.5-1.5c-0.1-1.4-1.3-2.5-2.8-2.5-1.1 0-2.1 0.7-2.5 1.6C16.4 3.5 16 3.5 15.8 3.5c-1.3 0-2.3 1-2.3 2.3 0 0.4 0.1 0.8 0.3 1.1C13.4 7.1 13 7.8 13 8.5c0 1.1 0.9 2 2 2h7z" fill="white" opacity="0.3"/>
</svg>

