<svg width="32" height="32" viewBox="0 0 32 32" xmlns="http://www.w3.org/2000/svg">
  <!-- Cloud shape -->
  <path d="M25 19c1.7 0 3-1.3 3-3s-1.3-3-3-3c-0.2-3.3-2.9-6-6.2-6-2.5 0-4.7 1.5-5.7 3.8C12.5 10.1 11.7 10 11 10c-2.8 0-5 2.2-5 5 0 0.9 0.2 1.7 0.7 2.4C5.9 18.1 5 19.4 5 21c0 2.2 1.8 4 4 4h16z" fill="#6366F1"/>
  
  <!-- Gear/cog -->
  <g transform="translate(16,16)">
    <path d="M-3,-6 L-1,-6 L0,-4 L1,-6 L3,-6 L6,-3 L6,-1 L4,0 L6,1 L6,3 L3,6 L1,6 L0,4 L-1,6 L-3,6 L-6,3 L-6,1 L-4,0 L-6,-1 L-6,-3 Z" fill="white"/>
    <circle cx="0" cy="0" r="2" fill="#6366F1"/>
  </g>
  
  <!-- Small 25 -->
  <text x="26" y="8" font-family="sans-serif" font-size="6" font-weight="bold" fill="#4338CA">25</text>
</svg>

